<?xml version="1.0" encoding="utf-8"?>
<!-- Generator: Adobe Illustrator 24.0.1, SVG Export Plug-In . SVG Version: 6.00 Build 0)  -->
<svg version="1.1" id="Layer_1" xmlns="http://www.w3.org/2000/svg" xmlns:xlink="http://www.w3.org/1999/xlink" x="0px" y="0px"
	 viewBox="0 0 583.98 567.19" style="enable-background:new 0 0 583.98 567.19;" xml:space="preserve">
<path d="M579.99,267.66c-0.04-0.77,0.6-1.74,1.19-2.37c4.58-4.96,3-9.21-0.81-14.59c-2.48-3.51-3.06-6.87-0.69-10.46
	c3.74-5.67,2.57-12.23-2.94-16.45c-3.09-2.37-3.39-3.87-1.42-7.21c4.23-7.18,2.69-13.74-4.32-18.41c-3.34-2.22-3.66-2.52-1.36-5.88
	c3.83-5.61,0.58-14.98-4.82-17.55c-0.22-0.11-0.43-0.25-0.65-0.37c-3.91-2.3-3.91-2.3-2.34-6.52c2.24-6.03-0.57-13.19-6.3-16.05
	c-0.6-0.3-1.18-0.62-1.79-0.89c-2.21-1.01-2.88-2.58-2.48-5.05c0.37-2.32,0.36-4.79,0-7.11c-0.69-4.4-3.01-7.68-7.54-9.01
	c-3.36-0.99-4.4-3.36-4.78-6.73c-0.39-3.39-1.42-6.81-2.83-9.92c-0.67-1.47-2.73-2.68-4.42-3.26c-4.53-1.55-6.81-4.66-7.7-9.18
	c-0.96-4.9-3-8.68-8.47-10.28c-4.08-1.2-6.83-4.87-8.28-8.71c-1.65-4.36-3.61-7.55-8.56-8.68c-2.03-0.46-3.84-2.53-5.43-4.17
	c-2.11-2.17-3.81-4.74-5.87-6.97c-1.25-1.35-2.74-2.53-4.3-3.52c-1.87-1.19-4.13-1.81-5.84-3.16c-3.77-2.95-7.28-6.22-10.94-9.32
	c-0.62-0.52-1.37-0.95-2.13-1.23c-6.87-2.49-12.59-6.94-18.68-10.78c-1.79-1.12-3.89-1.74-5.81-2.66
	c-5.32-2.56-10.48-5.55-15.97-7.68c-11.16-4.32-22.4-8.46-33.78-12.18c-15.48-5.06-31.55-7.52-47.67-9.49
	c-13.98-1.7-28.05-2.15-42.1-1.54c-27.89,1.22-55.21,5.93-81.84,14.46c-22.68,7.26-44.26,16.92-64.83,28.94
	c-14.55,8.51-28.44,18-41.32,28.8c-10.12,8.48-19.75,17.6-29.05,26.97c-12.14,12.24-22.8,25.79-32.43,40.1
	c-11.37,16.88-21.07,34.67-28.88,53.51c-9.42,22.75-15.64,46.33-19.13,70.64c-1.09,7.56-1.45,15.22-2.17,22.83
	c-0.08,0.81-0.33,1.61-0.51,2.42v22.48c0.45,3.27,1.07,6.53,1.32,9.81c0.3,3.97,0.07,7.97,0.47,11.93c0.27,2.69,1.29,5.29,1.87,7.95
	c0.74,3.42,1.9,6.85,1.92,10.28c0.03,4.64,0.58,8.83,3.09,12.9c1.34,2.17,1.66,5.04,2.14,7.65c0.44,2.4,0.81,4.9,0.62,7.31
	c-0.26,3.21,1.91,4.94,3.37,7.21c2.96,4.62,5.78,9.33,4.78,15.23c-0.41,2.46,0.73,4.39,2.46,5.97c3.02,2.76,5.96,5.57,7.43,9.51
	c0.45,1.21,1.06,2.64,0.79,3.78c-1.3,5.43,1.63,8.7,5.51,11.55c1.13,0.83,2.58,1.28,3.6,2.21c2.02,1.84,3.19,4.07,3.12,7.02
	c-0.15,6.72,3.71,11.7,10.14,13.5c3.48,0.98,4.26,2,4.29,5.67c0.07,8.15,4.94,13.38,13.06,13.87c2.09,0.13,2.98,0.98,2.96,3.08
	c-0.06,5.33,1.75,9.67,6.44,12.71c2.59,1.67,5.27,2.44,8.26,2.17c2.54-0.22,3.68,0.82,3.77,3.36c0.18,5.01,2.81,8.54,6.88,11.23
	c2.73,1.8,5.74,1.48,8.71,1.36c3.58-0.14,3.85,0,4.53,3.63c1.4,7.41,7.08,11.53,14.54,10.55c3.78-0.5,6.22,0.92,7.62,4.43
	c1.32,3.31,3.53,5.99,6.74,7.36c1.84,0.78,4.18,0.83,6.22,0.59c3.7-0.43,9.46,2.02,11.31,5.23c2.7,4.71,6.87,6.53,12.06,5.28
	c0.48-0.12,1.07-0.38,1.46-0.22c4.15,1.8,8.33,3.56,12.38,5.57c1.52,0.75,2.61,2.39,4.14,3.1c1.23,0.56,2.82,0.37,4.25,0.43
	c1.76,0.07,3.58-0.19,5.29,0.12c2.77,0.51,5.53,1.23,8.2,2.14c1.99,0.68,3.93,1.64,5.72,2.74c1.86,1.15,3.59,1.92,5.84,1.13
	c1.11-0.39,2.46-0.43,3.64-0.24c4.93,0.81,9.83,1.75,14.74,2.67c0.72,0.14,1.49,0.33,2.1,0.72c1.81,1.16,3.58,1.15,5.69,0.75
	c2.3-0.43,4.77-0.08,7.16,0.07c4.4,0.28,8.79,0.6,13.17,1.06c0.85,0.09,1.63,0.9,2.44,1.38h2.5c1.05-0.33,2.09-0.92,3.15-0.95
	c7.48-0.2,14.99,0.05,22.44-0.48c15.02-1.05,29.94-2.84,44.68-6.12c16.29-3.62,32.24-8.32,47.76-14.4
	c20.92-8.19,40.72-18.56,59.39-31.06c12.39-8.29,24.07-17.48,35.23-27.38c21.13-18.74,39.24-40.03,54.25-63.88
	c6.18-9.83,11.19-20.39,16.91-30.52c4.51-7.99,6.88-16.87,10.76-25.09c1.66-3.53,3.07-6.85,3.67-10.73c0.6-3.91,1.97-7.74,3.3-11.5
	c0.77-2.2,2.16-4.18,3.18-6.3c0.45-0.94,1.14-2.13,0.9-2.98c-1.24-4.42,0.23-8.59,0.92-12.81c0.56-3.47,0.9-6.95,3.74-9.81
	c1.04-1.05,0.92-4.1,0.24-5.81c-2.02-5.17,0.11-10.2-0.03-15.27c-0.02-0.54,0.56-1.22,1.04-1.64c3.6-3.14,3.56-7.09,1.48-10.66
	C579.48,275.83,580.22,271.73,579.99,267.66z"/>
</svg>
